<svg width="250" height="188" viewBox="0 0 250 188" fill="none" xmlns="http://www.w3.org/2000/svg">
<g clip-path="url(#clip0_3_128)">
<path d="M230.937 68.0125L218.8 64.075C217.606 63.6875 216.712 62.0625 216.819 60.4625L219.169 24.7687C219.287 22.075 222.294 21.3937 223.481 21.7875L235.625 25.725C236.819 26.1062 237.706 27.7312 237.606 29.3312L235.256 65.0313C235.15 66.625 232.187 68.5813 230.937 68.0125Z" fill="#0058C3"/>
<path d="M230.937 68.0125L218.8 64.075C217.606 63.6875 216.712 62.0625 216.819 60.4625L219.169 24.7687C219.275 23.1687 220.337 22.1812 221.531 22.5687L233.669 26.5062C234.862 26.8875 235.756 28.5125 235.65 30.1125L233.3 65.8125C233.2 67.4062 232.131 68.4 230.937 68.0125Z" fill="#3175DE"/>
<path d="M234.819 30.125L232.5 65C232.419 66.1812 231.637 66.9187 230.762 66.6312L219.106 62.8812C218.225 62.6 217.575 61.4 217.65 60.2125L220 25.3062C220.075 24.125 220.856 23.3875 221.737 23.675L233.394 27.425C234.237 27.7375 234.894 28.9375 234.819 30.125Z" fill="#F2FEFF"/>
<path d="M229.881 27.65L225 26.0688C224.785 25.9568 224.61 25.7817 224.499 25.5671C224.387 25.3525 224.344 25.1087 224.375 24.8688V24.7188C224.412 24.1875 224.762 23.8563 225.162 23.9875L230 25.5688C230.22 25.676 230.402 25.8491 230.519 26.0641C230.637 26.2791 230.685 26.5254 230.656 26.7688V26.9188C230.625 27.45 230.281 27.7813 229.881 27.65Z" fill="#3175DE"/>
<path d="M150.156 66.7562C150.156 66.7562 136.75 90.6562 131.706 100.85C130.85 102.581 157.162 107.475 150.381 113.319C143.6 119.162 113.55 115.513 111.794 101.8C110.425 91.0937 130.719 58.05 136.1 57.0562C141.481 56.0625 150.156 66.7562 150.156 66.7562Z" fill="#FF6161"/>
<path d="M207.981 351.956C204.625 347.288 196.106 343.75 196.106 343.75C196.106 343.75 205.644 274.719 198.456 212.388C194.706 179.663 179.137 138.888 176.312 132.85C166.406 134.475 125.1 125.669 119.912 125.25C116.625 130.756 110.212 138.775 107.831 154.625C104.081 179.625 118.219 218.319 119.15 238.375C119.406 243.925 127.006 342 127.006 342C127.212 343.302 127.174 344.631 126.894 345.919C126.319 348.631 125.456 353.356 126.362 353.869C132.256 357.175 158.15 356.619 154.794 351.95C151.437 347.281 142.919 343.744 142.919 343.744C142.919 343.744 159.906 228.119 149.169 195.225C157.131 206.419 164.169 231.044 164.925 240.606C166.737 263.731 180.137 342 180.137 342C180.345 343.302 180.309 344.63 180.031 345.919C179.456 348.631 178.594 353.356 179.5 353.869C185.444 357.188 211.337 356.625 207.981 351.956Z" fill="#FF6161"/>
<path d="M157.394 69.2125C157.394 69.2125 161.4 91.7938 154.812 100.888C148.225 109.981 141.925 106.081 137.994 105.363C134.062 104.644 134.556 106.462 130.944 104.156C127.331 101.85 115.15 92.9063 113.65 87.7063C112.775 84.6813 120.05 70 128.025 63.7813C134.644 58.5813 154.537 58.0563 157.394 69.2125Z" fill="#D8E5FC"/>
<path d="M208.281 320.994C208.906 294.069 206.525 256.7 201.856 216.225C198.106 183.494 179.15 138.888 176.325 132.85C166.419 134.475 125.112 125.669 119.925 125.25C116.637 130.756 110.225 138.775 107.844 154.625C104.094 179.625 114.55 293.094 108.244 321.613C124.25 327.775 144.012 327.344 150.437 320.988C154.762 285.569 156.931 218.919 149.219 195.225C157.181 206.425 156.75 229.213 157.5 238.75C158.75 254.319 163.75 295 162.256 322.906C179.156 333.125 205.281 327.019 208.281 320.994Z" fill="#4873CA"/>
<path d="M148.081 54.5125C148.081 54.5125 149.431 46.0937 150.331 42.6375C151.112 39.6375 152.162 38.125 153.65 37.4187C156.85 35.9062 158.894 55.8375 157.4 56.6563C155.906 57.475 148.081 54.5125 148.081 54.5125Z" fill="#FFF5F5"/>
<path d="M159.906 28.8625C159.906 28.8625 163.031 35.1563 163.869 38.7063C164.706 42.2563 163.012 46.475 159.619 47.625C157.231 48.4313 151 45.3375 151.431 40.5375C151.862 35.7375 159.906 28.8625 159.906 28.8625Z" fill="#FFF5F5"/>
<path d="M160.312 46.0563C157.931 46.875 151.7 43.75 152.131 38.975C152.157 38.7638 152.199 38.5549 152.256 38.35C151.808 39.0059 151.524 39.7608 151.431 40.55C151 45.35 157.231 48.4438 159.619 47.6375C160.584 47.2718 161.45 46.6858 162.149 45.9263C162.848 45.1668 163.36 44.2547 163.644 43.2625C162.91 44.5675 161.725 45.5606 160.312 46.0563Z" fill="#FFF5F5"/>
<path d="M176.325 132.85C174.2 133.2 170.625 133.062 166.275 132.637C162.962 138.619 160.85 144.969 161.787 150.762C164.75 168.95 180.237 238.569 184.137 250.806C187.8 262.313 175.169 306.7 175.65 327.681C190.419 330.181 206.006 325.563 208.281 320.994C208.906 294.069 206.525 256.7 201.856 216.225C198.081 183.494 179.15 138.887 176.325 132.85Z" fill="#1E4F8E"/>
<path d="M178.069 136.994L174.287 122.45C173.324 115.11 174.532 107.648 177.762 100.987C182.819 90.675 188.644 71.825 178.756 62.9062C165.631 51.0312 139.269 48.3562 129.7 69.9375C122.15 86.9812 120.65 104.281 116.131 126.1C114.681 133.125 132.5 139.8 145.625 140.5C168.881 141.737 178.069 136.994 178.069 136.994Z" fill="#F2FEFF"/>
<path d="M174.287 122.45C173.324 115.108 174.532 107.645 177.762 100.981C182.825 90.675 188.65 71.8188 178.756 62.9063C175.375 59.8563 173.969 63.2375 169.044 61.5563C169.669 63.4313 167.169 60.175 167.437 63.7C167.956 70.9625 158.356 95.2313 159.262 116.906C159.594 124.844 160.231 133.125 160.9 140.444C173 139.6 178.069 136.994 178.069 136.994L174.287 122.45Z" fill="#D8E5FC"/>
<path d="M163.65 26.05C163.307 24.6081 162.505 23.3169 161.364 22.371C160.223 21.4251 158.805 20.8759 157.325 20.8062C153.994 20.6937 151.019 20.2875 144.663 25.1812C139.913 28.8188 141.081 44.5563 149.256 47.7688C152.862 49.1938 157.631 42.2875 158.562 40.2687C159.787 37.2224 160.627 34.0353 161.062 30.7812L162.837 32.6875C162.837 32.6875 164.812 30.1187 163.65 26.05Z" fill="#144AAF"/>
<path d="M159.875 40.1937C159.964 39.6896 159.905 39.1705 159.706 38.6991C159.506 38.2278 159.174 37.8243 158.75 37.5375C157.281 36.6687 156.369 38.5625 157.5 41.225C158.631 43.8875 159.856 43.0625 159.875 40.1937Z" fill="#FFF5F5"/>
<path d="M172.831 61.875C172.831 61.875 196.581 84.1687 206.95 95.3313C207.269 95.675 225.669 60.875 230.231 72.0812C234.794 83.2875 217.975 124.881 200.556 120.8C192.056 118.806 176.1 102.175 165.556 88.2125C159.219 79.8437 155.95 74.1437 156.269 71.4437C157.094 64.2125 172.831 61.875 172.831 61.875Z" fill="#FFF5F5"/>
<path d="M152.181 35.4563C147.975 35.4 144.237 33.225 141.969 31.5375C141.344 37.5688 143.687 45.5625 149.256 47.75C152.862 49.175 157.631 42.2688 158.562 40.25C159.289 38.4515 159.879 36.6003 160.325 34.7125C157.644 35.247 154.914 35.4963 152.181 35.4563Z" fill="#4873CA"/>
<path d="M181.662 106.956C183.657 105.754 185.571 104.425 187.394 102.975C190.469 100.3 193.141 97.1922 195.325 93.75L169.944 93.5563C173.525 97.9312 177.537 102.5 181.662 106.956Z" fill="#FF6969"/>
<path d="M224.637 69.525C224.637 69.525 224.706 64.525 224.487 63.1375C224.269 61.75 223.731 54.2063 225.112 54.2063C227.669 54.2063 227.487 60.025 228.419 61.4875C228.981 62.3625 231.787 61.1437 234.044 58.0375C235.037 56.6688 235.956 52.2938 236.237 52.0625C236.687 51.6938 237.337 51.9437 237.869 52.2937C239.381 53.3 239.431 58.2 240.306 59.7062C241.181 61.2125 241.644 64.15 237.806 70.0062C233.969 75.8625 223.275 79.9625 224.637 69.525Z" fill="#FFF5F5"/>
<path d="M175.2 58.8938C175.2 58.8938 198.4 68.8938 200.769 79.875C203.137 90.8562 196.025 92.9312 192.856 95.375C189.687 97.8187 191.387 98.6687 187.231 99.8125C183.075 100.956 178.287 104.812 175.15 104.569C172.012 104.325 157.594 83.125 155.244 75.0375C152.894 66.95 165 53.5688 175.2 58.8938Z" fill="#F2FEFF"/>
<path d="M144.431 28.8625C144.431 28.8625 136.306 23.6375 129.669 28.8625C123.031 34.0875 127.244 35.9562 127.244 43.8312C127.244 51.7062 114.794 49.075 115.281 55.625C115.769 62.175 129.825 61.5562 130.956 68.3437C132.087 75.1312 119.35 73.55 123.531 79.7C127.712 85.85 145.187 81.9687 147.05 70.3875C148.912 58.8062 138.881 55.0062 142.6 53.025C146.319 51.0437 149.5 29.9437 144.431 28.8625Z" fill="#144AAF"/>
<path d="M71.25 91.35C71.25 91.35 22.0563 134.631 33.2625 147.712C44.4688 160.794 72.6375 135.65 78.2188 128.569C83.8 121.488 71.25 91.35 71.25 91.35Z" fill="#D8E5FC"/>
<path d="M146 167.5C147.65 155.188 147.15 125.194 137.494 112.781C127.838 100.369 90.6188 100.594 83.925 123.356C77.2313 146.119 34.0188 144.95 39.325 189.106C42.5563 216.031 137.181 233.425 146 167.5Z" fill="#1E4F8E"/>
<path d="M137.287 132.4C137.287 132.4 140.15 153.956 136.875 159.987C133.6 166.019 72.2124 206.375 60.8311 202.581C49.4499 198.787 40.3124 192.925 41.6936 183.269C43.0749 173.613 48.7499 157.75 63.2499 151.025C77.7499 144.3 91.5311 130.731 92.7999 121.881C95.1436 105.544 133.837 99.125 137.287 132.4Z" fill="#3269A5"/>
<path d="M73.9249 109.688C72.7216 107.82 70.8728 106.46 68.7312 105.869C68.7312 105.869 69.9 124.862 69.7875 129.112C69.7125 131.944 69.7375 135.125 69.7875 136.937C72.8346 134.395 75.6575 131.595 78.2249 128.569C79.1124 127.431 79.5374 125.706 79.6312 123.606C77.4999 117.819 74.9562 111.331 73.9249 109.688Z" fill="#98BDFF"/>
<path d="M69.1875 94.45C71.3438 87.1125 87.875 85.1187 101.006 85.7C109.131 86.0437 119.706 88.825 124.006 92.575C147.688 113.275 127.131 166.531 120.831 176.075C114.531 185.619 87.3688 179.313 76.8125 173.913C66.2563 168.513 54.9375 159.769 58.3375 155.969C61.7375 152.169 75.15 138.188 73.4563 128.744C71.7625 119.3 66.4063 103.906 69.1875 94.45Z" fill="#F2FEFF"/>
<path d="M58.3376 155.944C61.7563 152.144 75.1501 138.163 73.4563 128.719C71.7626 119.275 66.4001 103.906 69.1876 94.45C70.4376 90.1375 76.6876 87.6687 84.2938 86.4812C83.5688 94.5062 82.0563 114.369 83.9251 123.356C86.1438 134.038 83.4438 163.125 71.3688 170.825C62.7938 165.625 55.5126 159.088 58.3376 155.944Z" fill="#D8E5FC"/>
<path d="M92.0374 170.969C67.9749 160.894 49.9687 151.712 34.4499 152.406C18.9312 153.1 -42.2751 217.063 -38.6563 225.681C-35.0376 234.3 -24.4813 239.306 -22.5188 237.413C-20.5563 235.519 29.2374 192.75 35.4874 179.819C35.4874 179.819 64.9687 204.594 94.2875 200.513C115.956 197.494 120.719 181.95 119.287 177.756C118.05 174.094 97.0687 173.075 92.0374 170.969Z" fill="#4873CA"/>
<path d="M45.6561 179.419C43.0561 177.775 37.7749 176.594 31.9061 179.662C24.1061 183.75 -7.93137 253.981 -3.83137 259.594C-0.225125 264.531 12.5499 268.269 17.5499 266.369C22.5499 264.469 51.6936 193.75 51.6936 193.75C51.6936 193.75 59.1936 195.131 59.2249 194.275C59.2561 193.419 48.8311 181.425 45.6561 179.419Z" fill="#1E4F8E"/>
<path d="M92.3811 149.494L40.2062 145.331L9.6499 150.956L60.2249 154.981L93.0061 149.906C92.9444 149.791 92.8549 149.693 92.7458 149.621C92.6367 149.549 92.5114 149.505 92.3811 149.494V149.494Z" fill="#3175DE"/>
<path d="M60.2249 154.962L61.6249 159.131L61.8374 159.094C64.3374 158.619 88.2061 153.994 92.2998 153.2C92.4682 153.165 92.6205 153.076 92.7333 152.946C92.8462 152.816 92.9135 152.653 92.9248 152.481L93.0936 150.356C93.1125 150.19 93.075 150.023 92.9874 149.881L60.2249 154.962Z" fill="#0058C3"/>
<path d="M58.5937 153.481L85.1562 150.019L56.2937 147.712L58.5937 153.481Z" fill="#F2FEFF"/>
<path d="M60.2248 154.963L9.64984 150.938L0.231092 109.113C0.18873 108.929 0.183168 108.74 0.214729 108.554C0.24629 108.369 0.314345 108.192 0.414941 108.033C0.515538 107.875 0.646671 107.737 0.800725 107.63C0.95478 107.522 1.12868 107.446 1.31234 107.406V107.406C1.45316 107.384 1.59652 107.384 1.73734 107.406L49.3311 111.2C49.6296 111.229 49.9114 111.351 50.136 111.55C50.3606 111.749 50.5164 112.013 50.5811 112.306L60.2248 154.963Z" fill="#3175DE"/>
<path d="M31.5188 130C31.9188 131.875 30.975 133.625 29.4 133.969C27.825 134.312 26.25 133.081 25.825 131.25C25.4 129.419 26.3688 127.619 27.9438 127.281C29.5188 126.944 31.1188 128.125 31.5188 130Z" fill="#F2FEFF"/>
<path d="M9.6499 150.938L11.7687 154.169C12.0221 154.552 12.3591 154.872 12.7542 155.106C13.1494 155.34 13.5924 155.481 14.0499 155.519L59.9062 159.175C60.477 159.22 61.0509 159.205 61.6187 159.131L60.2187 155L9.6499 150.938Z" fill="#0058C3"/>
<path d="M17.2249 111.525L7.69993 110.769C7.26203 110.734 6.82151 110.785 6.40355 110.921C5.98559 111.056 5.59838 111.272 5.26406 111.557C4.92973 111.842 4.65484 112.19 4.4551 112.581C4.25535 112.973 4.13466 113.4 4.09993 113.837V113.837C4.07376 114.188 4.10116 114.539 4.18118 114.881L7.30618 127.825C7.36976 128.074 7.52844 128.288 7.74815 128.421C7.96785 128.554 8.23104 128.596 8.48118 128.538V128.538C8.67333 128.489 8.84643 128.384 8.97796 128.235C9.10949 128.087 9.19336 127.903 9.21868 127.706C9.69993 123.331 10.6312 117.994 12.3812 116.844C14.1312 115.694 16.1312 114.344 17.7062 113.3C17.8716 113.187 17.998 113.025 18.0681 112.837C18.1383 112.649 18.1488 112.444 18.0982 112.25C18.0477 112.056 17.9385 111.882 17.7855 111.752C17.6326 111.623 17.4434 111.543 17.2437 111.525H17.2249Z" fill="#F2FEFF"/>
<path d="M134.162 128.081L115.744 107.369C115.744 107.369 117.837 122.563 122.669 136.469C124.55 142.048 127.175 147.348 130.475 152.225C132.664 144.803 134.129 137.186 134.85 129.481L134.162 128.081Z" fill="#98BDFF"/>
<path d="M128.838 168.662C128.838 168.662 123.088 178.919 103.969 186.225C84.8501 193.531 70.625 200.194 68.75 202.688C66.875 205.181 77.0875 210.313 96.4438 205.338C115.8 200.363 130.238 179.694 128.838 168.662Z" fill="#3269A5"/>
<path d="M121.006 93.3562C131.256 89.9687 156.7 125.45 152.219 162.175C147.737 198.9 77.6187 164.494 79.625 157.175C80.05 155.631 78.8687 151.55 82.7062 151.163C96.975 149.769 127.375 156.163 130.1 153.038C134.569 147.963 102.206 99.5687 121.006 93.3562Z" fill="#F2FEFF"/>
<path d="M121.006 93.3562C120.183 93.6207 119.405 94.0107 118.7 94.5125C120.456 99.8688 129.4 107.156 135.125 115.794C145.319 131.169 147.219 155.625 144.287 164.244C141.356 172.863 135 172.5 125 172.194C115.756 171.925 96.6187 165.281 90.7937 161.488C86.475 158.675 82.2687 154.338 80.0437 153.144C79.575 154.538 79.8687 156.3 79.625 157.2C77.6187 164.494 147.75 198.9 152.219 162.2C156.687 125.5 131.25 90 121.006 93.3562Z" fill="#D8E5FC"/>
<path d="M80.7625 149.881C78.525 149.175 76.1687 150.55 73.6375 150.15C71.1062 149.75 71.225 151.537 73.0125 152.369C73.6202 152.643 74.2841 152.769 74.95 152.737C73.925 154.187 69.0625 157.7 69.0625 157.7C69.0625 157.7 69.3312 158.2 73.0125 158.081C76.6937 157.962 80.6813 157.519 82.15 155.669C83.0688 154.5 83.0062 150.625 80.7625 149.881Z" fill="#FFF5F5"/>
<path d="M87.3438 63.4125C87.3438 63.4125 91.875 61.7312 93.9563 61.875C96.0376 62.0187 97.7063 58.8437 99.8251 59.375C101.944 59.9062 101.875 63.0812 100.219 64.4125C98.5626 65.7437 101.469 75.575 96.4688 78.1625C91.4688 80.75 83.8063 67.6687 87.3438 63.4125Z" fill="#07D9C9"/>
<path d="M83.7501 73.2125C83.7501 73.2125 80.15 72.9625 80.1438 68.2125C80.1438 65.0875 84.5188 60.35 86.5688 60.2875C88.6188 60.225 87.9126 61.95 88.3001 62.875C90.3876 67.875 96.1188 69.75 96.9001 73.8C97.6813 77.85 92.6563 80.1 90.8126 79.3437C88.9688 78.5875 83.7501 73.2125 83.7501 73.2125Z" fill="#144AAF"/>
<path d="M95.575 75.2625L102.3 87.5313C102.656 89.4063 93.4063 96.5125 89.9813 94.65C88.9813 94.1063 88.9 92.25 89.3563 90.1313L92.3313 78.5375L95.575 75.2625Z" fill="#FFF5F5"/>
<path d="M91.7499 80.8687C93.7687 80.1187 96.5187 79.0687 96.5187 79.0687C96.6675 81.3776 95.9374 83.6572 94.4749 85.45C93.2835 86.9254 91.645 87.9739 89.8062 88.4375L91.7499 80.8687Z" fill="#FFF5F5"/>
<path d="M91.8125 70.9375L96.0563 77.7375C96.6453 78.8665 96.7704 80.1807 96.405 81.4006C96.0397 82.6204 95.2127 83.6495 94.1 84.2688C92.225 85.3 90.975 85.6188 88.35 85.9375C86.175 86.2 84.6 84.4438 83.9063 81.6688C83.2324 78.6991 83.0739 75.6358 83.4375 72.6125C83.9313 68.2813 88.75 66.7125 91.8125 70.9375Z" fill="#FFF5F5"/>
<path d="M92.5936 74.2437C92.7376 73.7694 92.8318 73.2814 92.8748 72.7875C92.9686 71.85 93.3248 70.475 94.6498 71.3C96.5748 72.5 95.8061 77.475 93.4436 77.625C91.6936 77.7375 92.2123 75.4375 92.5936 74.2437Z" fill="#FFF5F5"/>
<path d="M88.3999 77.9375C87.078 78.5551 85.6631 78.95 84.2124 79.1063C84.297 79.3951 84.4577 79.656 84.6776 79.8616C84.8975 80.0672 85.1685 80.2099 85.4624 80.275C86.6062 80.625 88.2874 80 88.3999 77.9375Z" fill="#F2FEFF"/>
<path d="M87.0187 83.35C89.2625 82.2937 91.9437 85.4313 95.3125 81C95.9375 80.1688 95.9812 78.5438 95.9375 77.5938L96.0375 77.7375C96.6246 78.8685 96.7481 80.1837 96.3818 81.4042C96.0154 82.6247 95.1879 83.6544 94.075 84.275C92.2 85.3 90.95 85.6187 88.325 85.9375C87.6925 86.0093 87.0525 85.9021 86.4779 85.628C85.9034 85.354 85.4173 84.9242 85.075 84.3875C85.5375 84.375 86.3312 83.675 87.0187 83.35Z" fill="#FFF5F5"/>
</g>
<defs>
<clipPath id="clip0_3_128">
<rect width="250" height="187.5" fill="white"/>
</clipPath>
</defs>
</svg>
